<svg width="98" height="90" viewBox="0 0 98 90" fill="none" xmlns="http://www.w3.org/2000/svg">
<circle cx="49" cy="45" r="49" fill="#2ECC71"/>
<path d="M15.0234 36.8438C14.3906 37.6016 13.4961 38.1914 12.3398 38.6133C11.1836 39.0273 9.90234 39.2344 8.49609 39.2344C7.01953 39.2344 5.72266 38.9141 4.60547 38.2734C3.49609 37.625 2.63672 36.6875 2.02734 35.4609C1.42578 34.2344 1.11719 32.793 1.10156 31.1367V29.9766C1.10156 28.2734 1.38672 26.8008 1.95703 25.5586C2.53516 24.3086 3.36328 23.3555 4.44141 22.6992C5.52734 22.0352 6.79688 21.7031 8.25 21.7031C10.2734 21.7031 11.8555 22.1875 12.9961 23.1562C14.1367 24.1172 14.8125 25.5195 15.0234 27.3633H11.6016C11.4453 26.3867 11.0977 25.6719 10.5586 25.2188C10.0273 24.7656 9.29297 24.5391 8.35547 24.5391C7.16016 24.5391 6.25 24.9883 5.625 25.8867C5 26.7852 4.68359 28.1211 4.67578 29.8945V30.9844C4.67578 32.7734 5.01562 34.125 5.69531 35.0391C6.375 35.9531 7.37109 36.4102 8.68359 36.4102C10.0039 36.4102 10.9453 36.1289 11.5078 35.5664V32.625H8.30859V30.0352H15.0234V36.8438ZM21.2344 39H17.8359V21H21.2344V39ZM23.5078 32.543C23.5078 31.2852 23.75 30.1641 24.2344 29.1797C24.7188 28.1953 25.4141 27.4336 26.3203 26.8945C27.2344 26.3555 28.293 26.0859 29.4961 26.0859C31.207 26.0859 32.6016 26.6094 33.6797 27.6562C34.7656 28.7031 35.3711 30.125 35.4961 31.9219L35.5195 32.7891C35.5195 34.7344 34.9766 36.2969 33.8906 37.4766C32.8047 38.6484 31.3477 39.2344 29.5195 39.2344C27.6914 39.2344 26.2305 38.6484 25.1367 37.4766C24.0508 36.3047 23.5078 34.7109 23.5078 32.6953V32.543ZM26.8945 32.7891C26.8945 33.9922 27.1211 34.9141 27.5742 35.5547C28.0273 36.1875 28.6758 36.5039 29.5195 36.5039C30.3398 36.5039 30.9805 36.1914 31.4414 35.5664C31.9023 34.9336 32.1328 33.9258 32.1328 32.543C32.1328 31.3633 31.9023 30.4492 31.4414 29.8008C30.9805 29.1523 30.332 28.8281 29.4961 28.8281C28.668 28.8281 28.0273 29.1523 27.5742 29.8008C27.1211 30.4414 26.8945 31.4375 26.8945 32.7891ZM49.0312 32.7773C49.0312 34.8086 48.5977 36.3945 47.7305 37.5352C46.8633 38.668 45.6523 39.2344 44.0977 39.2344C42.7227 39.2344 41.625 38.707 40.8047 37.6523L40.6523 39H37.6055V21H40.9922V27.457C41.7734 26.543 42.8008 26.0859 44.0742 26.0859C45.6211 26.0859 46.832 26.6562 47.707 27.7969C48.5898 28.9297 49.0312 30.5273 49.0312 32.5898V32.7773ZM45.6445 32.5312C45.6445 31.25 45.4414 30.3164 45.0352 29.7305C44.6289 29.1367 44.0234 28.8398 43.2188 28.8398C42.1406 28.8398 41.3984 29.2812 40.9922 30.1641V35.168C41.4062 36.0586 42.1562 36.5039 43.2422 36.5039C44.3359 36.5039 45.0547 35.9648 45.3984 34.8867C45.5625 34.3711 45.6445 33.5859 45.6445 32.5312ZM58.4766 39C58.3203 38.6953 58.207 38.3164 58.1367 37.8633C57.3164 38.7773 56.25 39.2344 54.9375 39.2344C53.6953 39.2344 52.6641 38.875 51.8438 38.1562C51.0312 37.4375 50.625 36.5312 50.625 35.4375C50.625 34.0938 51.1211 33.0625 52.1133 32.3438C53.1133 31.625 54.5547 31.2617 56.4375 31.2539H57.9961V30.5273C57.9961 29.9414 57.8438 29.4727 57.5391 29.1211C57.2422 28.7695 56.7695 28.5938 56.1211 28.5938C55.5508 28.5938 55.1016 28.7305 54.7734 29.0039C54.4531 29.2773 54.293 29.6523 54.293 30.1289H50.9062C50.9062 29.3945 51.1328 28.7148 51.5859 28.0898C52.0391 27.4648 52.6797 26.9766 53.5078 26.625C54.3359 26.2656 55.2656 26.0859 56.2969 26.0859C57.8594 26.0859 59.0977 26.4805 60.0117 27.2695C60.9336 28.0508 61.3945 29.1523 61.3945 30.5742V36.0703C61.4023 37.2734 61.5703 38.1836 61.8984 38.8008V39H58.4766ZM55.6758 36.6445C56.1758 36.6445 56.6367 36.5352 57.0586 36.3164C57.4805 36.0898 57.793 35.7891 57.9961 35.4141V33.2344H56.7305C55.0352 33.2344 54.1328 33.8203 54.0234 34.9922L54.0117 35.1914C54.0117 35.6133 54.1602 35.9609 54.457 36.2344C54.7539 36.5078 55.1602 36.6445 55.6758 36.6445ZM67.1133 26.3203L67.2188 27.7852C68.125 26.6523 69.3398 26.0859 70.8633 26.0859C72.207 26.0859 73.207 26.4805 73.8633 27.2695C74.5195 28.0586 74.8555 29.2383 74.8711 30.8086V39H71.4844V30.8906C71.4844 30.1719 71.3281 29.6523 71.0156 29.332C70.7031 29.0039 70.1836 28.8398 69.457 28.8398C68.5039 28.8398 67.7891 29.2461 67.3125 30.0586V39H63.9258V26.3203H67.1133ZM81.5039 23.2031V26.3203H83.6719V28.8047H81.5039V35.1328C81.5039 35.6016 81.5938 35.9375 81.7734 36.1406C81.9531 36.3438 82.2969 36.4453 82.8047 36.4453C83.1797 36.4453 83.5117 36.418 83.8008 36.3633V38.9297C83.1367 39.1328 82.4531 39.2344 81.75 39.2344C79.375 39.2344 78.1641 38.0352 78.1172 35.6367V28.8047H76.2656V26.3203H78.1172V23.2031H81.5039ZM34.2773 62.5234C34.2773 61.8594 34.043 61.3516 33.5742 61C33.1055 60.6406 32.2617 60.2656 31.043 59.875C29.8242 59.4766 28.8594 59.0859 28.1484 58.7031C26.2109 57.6562 25.2422 56.2461 25.2422 54.4727C25.2422 53.5508 25.5 52.7305 26.0156 52.0117C26.5391 51.2852 27.2852 50.7188 28.2539 50.3125C29.2305 49.9062 30.3242 49.7031 31.5352 49.7031C32.7539 49.7031 33.8398 49.9258 34.793 50.3711C35.7461 50.8086 36.4844 51.4297 37.0078 52.2344C37.5391 53.0391 37.8047 53.9531 37.8047 54.9766H34.2891C34.2891 54.1953 34.043 53.5898 33.5508 53.1602C33.0586 52.7227 32.3672 52.5039 31.4766 52.5039C30.6172 52.5039 29.9492 52.6875 29.4727 53.0547C28.9961 53.4141 28.7578 53.8906 28.7578 54.4844C28.7578 55.0391 29.0352 55.5039 29.5898 55.8789C30.1523 56.2539 30.9766 56.6055 32.0625 56.9336C34.0625 57.5352 35.5195 58.2812 36.4336 59.1719C37.3477 60.0625 37.8047 61.1719 37.8047 62.5C37.8047 63.9766 37.2461 65.1367 36.1289 65.9805C35.0117 66.8164 33.5078 67.2344 31.6172 67.2344C30.3047 67.2344 29.1094 66.9961 28.0312 66.5195C26.9531 66.0352 26.1289 65.375 25.5586 64.5391C24.9961 63.7031 24.7148 62.7344 24.7148 61.6328H28.2422C28.2422 63.5156 29.3672 64.457 31.6172 64.457C32.4531 64.457 33.1055 64.2891 33.5742 63.9531C34.043 63.6094 34.2773 63.1328 34.2773 62.5234ZM43.2773 55.7031C44.1758 54.625 45.3047 54.0859 46.6641 54.0859C49.4141 54.0859 50.8086 55.6836 50.8477 58.8789V67H47.4609V58.9727C47.4609 58.2461 47.3047 57.7109 46.9922 57.3672C46.6797 57.0156 46.1602 56.8398 45.4336 56.8398C44.4414 56.8398 43.7227 57.2227 43.2773 57.9883V67H39.8906V49H43.2773V55.7031ZM52.875 60.543C52.875 59.2852 53.1172 58.1641 53.6016 57.1797C54.0859 56.1953 54.7812 55.4336 55.6875 54.8945C56.6016 54.3555 57.6602 54.0859 58.8633 54.0859C60.5742 54.0859 61.9688 54.6094 63.0469 55.6562C64.1328 56.7031 64.7383 58.125 64.8633 59.9219L64.8867 60.7891C64.8867 62.7344 64.3438 64.2969 63.2578 65.4766C62.1719 66.6484 60.7148 67.2344 58.8867 67.2344C57.0586 67.2344 55.5977 66.6484 54.5039 65.4766C53.418 64.3047 52.875 62.7109 52.875 60.6953V60.543ZM56.2617 60.7891C56.2617 61.9922 56.4883 62.9141 56.9414 63.5547C57.3945 64.1875 58.043 64.5039 58.8867 64.5039C59.707 64.5039 60.3477 64.1914 60.8086 63.5664C61.2695 62.9336 61.5 61.9258 61.5 60.543C61.5 59.3633 61.2695 58.4492 60.8086 57.8008C60.3477 57.1523 59.6992 56.8281 58.8633 56.8281C58.0352 56.8281 57.3945 57.1523 56.9414 57.8008C56.4883 58.4414 56.2617 59.4375 56.2617 60.7891ZM78.3867 60.7773C78.3867 62.7305 77.9414 64.2969 77.0508 65.4766C76.168 66.6484 74.9727 67.2344 73.4648 67.2344C72.1836 67.2344 71.1484 66.7891 70.3594 65.8984V71.875H66.9727V54.3203H70.1133L70.2305 55.5625C71.0508 54.5781 72.1211 54.0859 73.4414 54.0859C75.0039 54.0859 76.2188 54.6641 77.0859 55.8203C77.9531 56.9766 78.3867 58.5703 78.3867 60.6016V60.7773ZM75 60.5312C75 59.3516 74.7891 58.4414 74.3672 57.8008C73.9531 57.1602 73.3477 56.8398 72.5508 56.8398C71.4883 56.8398 70.7578 57.2461 70.3594 58.0586V63.25C70.7734 64.0859 71.5117 64.5039 72.5742 64.5039C74.1914 64.5039 75 63.1797 75 60.5312ZM87.3633 63.4961C87.3633 63.082 87.1562 62.7578 86.7422 62.5234C86.3359 62.2812 85.6797 62.0664 84.7734 61.8789C81.7578 61.2461 80.25 59.9648 80.25 58.0352C80.25 56.9102 80.7148 55.9727 81.6445 55.2227C82.582 54.4648 83.8047 54.0859 85.3125 54.0859C86.9219 54.0859 88.207 54.4648 89.168 55.2227C90.1367 55.9805 90.6211 56.9648 90.6211 58.1758H87.2344C87.2344 57.6914 87.0781 57.293 86.7656 56.9805C86.4531 56.6602 85.9648 56.5 85.3008 56.5C84.7305 56.5 84.2891 56.6289 83.9766 56.8867C83.6641 57.1445 83.5078 57.4727 83.5078 57.8711C83.5078 58.2461 83.6836 58.5508 84.0352 58.7852C84.3945 59.0117 84.9961 59.2109 85.8398 59.3828C86.6836 59.5469 87.3945 59.7344 87.9727 59.9453C89.7617 60.6016 90.6562 61.7383 90.6562 63.3555C90.6562 64.5117 90.1602 65.4492 89.168 66.168C88.1758 66.8789 86.8945 67.2344 85.3242 67.2344C84.2617 67.2344 83.3164 67.0469 82.4883 66.6719C81.668 66.2891 81.0234 65.7695 80.5547 65.1133C80.0859 64.4492 79.8516 63.7344 79.8516 62.9688H83.0625C83.0938 63.5703 83.3164 64.0312 83.7305 64.3516C84.1445 64.6719 84.6992 64.832 85.3945 64.832C86.043 64.832 86.5312 64.7109 86.8594 64.4688C87.1953 64.2188 87.3633 63.8945 87.3633 63.4961Z" fill="white"/>
</svg>
