<svg width="12" height="11" viewBox="0 0 12 11" fill="none" xmlns="http://www.w3.org/2000/svg">
<path d="M6.14266 0.953647C6.12258 0.891844 6.06498 0.85 6 0.85C5.93502 0.85 5.87742 0.891844 5.85734 0.953647L4.76845 4.30491H1.24472C1.17973 4.30491 1.12214 4.34676 1.10206 4.40856C1.08198 4.47037 1.10398 4.53807 1.15655 4.57627L4.00731 6.64747L2.91842 9.99873C2.89833 10.0605 2.92033 10.1282 2.97291 10.1664C3.02548 10.2046 3.09667 10.2046 3.14924 10.1664L6 8.09524L8.85076 10.1664C8.90333 10.2046 8.97452 10.2046 9.02709 10.1664C9.07967 10.1282 9.10167 10.0605 9.08158 9.99873L7.99269 6.64746L10.8435 4.57627C10.896 4.53807 10.918 4.47037 10.8979 4.40856C10.8779 4.34676 10.8203 4.30491 10.7553 4.30491H7.23155L6.14266 0.953647Z" fill="#E7FF53" stroke="#E2B100" stroke-width="0.3" stroke-linejoin="round"/>
</svg>
